<?xml version="1.0" encoding="utf-8"?>
<svg height="100px" width="100px" fill="#000000" version="1.1" x="0px" y="0px" viewBox="21.481 21.441 57.23 57.237" style="enable-background:new 0 0 100 100;" xmlns="http://www.w3.org/2000/svg">
  <g>
    <path d="M74.5,21.7H33.6c-2.1,0-3.8,1.7-3.8,3.8v4.3h-3.2c-2.7,0-4.9,2.2-4.9,4.9v38.8c0,2.7,2.2,4.9,4.9,4.9h38.8   c2.7,0,4.9-2.2,4.9-4.9v-3.2h4.3c2.1,0,3.8-1.7,3.8-3.8V25.5C78.3,23.4,76.6,21.7,74.5,21.7z M66.9,73.4c0,0.9-0.7,1.6-1.6,1.6   H26.6c-0.9,0-1.6-0.7-1.6-1.6V34.6c0-0.9,0.7-1.6,1.6-1.6h38.8c0.9,0,1.6,0.7,1.6,1.6V73.4z M75,66.4c0,0.3-0.2,0.5-0.5,0.5h-4.3   V34.6c0-2.7-2.2-4.9-4.9-4.9H33.1v-4.3c0-0.3,0.2-0.5,0.5-0.5h40.9c0.3,0,0.5,0.2,0.5,0.5V66.4z"/>
    <path d="M54.4,42.4L40,58.8l-2.6-2.7c-1.2-1.3-3.3-1.3-4.5-0.1s-1.3,3.3-0.1,4.5l5,5.2c0.6,0.6,1.4,1,2.3,1c0,0,0,0,0.1,0   c0.9,0,1.7-0.4,2.3-1.1l16.8-19c1.2-1.3,1.1-3.4-0.3-4.5C57.6,41,55.6,41.1,54.4,42.4z"/>
  </g>
</svg>